<?xml version="1.0" encoding="utf-8"?>
<!-- Generator: Adobe Illustrator 16.0.0, SVG Export Plug-In . SVG Version: 6.00 Build 0)  -->
<!DOCTYPE svg PUBLIC "-//W3C//DTD SVG 1.1//EN" "http://www.w3.org/Graphics/SVG/1.1/DTD/svg11.dtd">
<svg version="1.1" id="Layer_1" xmlns="http://www.w3.org/2000/svg" xmlns:xlink="http://www.w3.org/1999/xlink" x="0px" y="0px"
	 width="27.667px" height="24px" viewBox="0 0 27.667 24" enable-background="new 0 0 27.667 24" xml:space="preserve">
<g>
	<path fill="#58595B" d="M11.855,10.732c0.446-0.694,0.7-1.521,0.686-2.409c-0.039-2.374-2.015-4.26-4.389-4.26H1.523
		c-0.31,0-0.562,0.251-0.562,0.562v14.578c0,0.311,0.252,0.562,0.562,0.562h7.405c2.748,0,5.025-2.204,5.035-4.952
		C13.971,13.13,13.136,11.637,11.855,10.732L11.855,10.732z M3.869,6.972h4.34c0.787,0,1.425,0.639,1.425,1.425
		c0,0.786-0.639,1.426-1.425,1.426h-4.34V6.972z M8.992,16.857H3.869V12.73h5.123c1.139,0,2.064,0.926,2.064,2.064
		S10.131,16.857,8.992,16.857L8.992,16.857z M8.992,16.857"/>
	<path fill="#58595B" d="M26.706,13.781c0-3.395-2.676-6.156-5.964-6.156c-3.289,0-5.964,2.762-5.964,6.156s2.675,6.156,5.964,6.156
		c1.995,0,3.849-1.022,4.959-2.736c0.139-0.214,0.265-0.437,0.376-0.667c0.081-0.167-0.042-0.361-0.228-0.361l-2.932-0.008
		c-0.065,0-0.126,0.026-0.172,0.072c-0.554,0.539-1.232,0.792-2.003,0.792c-1.457,0-2.679-1.09-2.982-2.542h8.362
		c0.323,0,0.584-0.261,0.584-0.584V13.781z M20.742,10.533c1.067,0,2.007,0.585,2.554,1.468h-5.109
		C18.733,11.118,19.674,10.533,20.742,10.533L20.742,10.533z M20.742,10.533"/>
	<path fill="#58595B" d="M23.22,6.902h-5.291c-0.246,0-0.447-0.201-0.447-0.447V5.128c0-0.247,0.201-0.447,0.447-0.447h5.291
		c0.247,0,0.447,0.2,0.447,0.447v1.327C23.667,6.702,23.467,6.902,23.22,6.902L23.22,6.902z M23.22,6.902"/>
</g>
</svg>
