<?xml version="1.0" encoding="utf-8"?>
<!-- Generator: Adobe Illustrator 16.0.0, SVG Export Plug-In . SVG Version: 6.00 Build 0)  -->
<!DOCTYPE svg PUBLIC "-//W3C//DTD SVG 1.1//EN" "http://www.w3.org/Graphics/SVG/1.1/DTD/svg11.dtd">
<svg version="1.1" id="Layer_1" xmlns="http://www.w3.org/2000/svg" xmlns:xlink="http://www.w3.org/1999/xlink" x="0px" y="0px"
	 width="24.667px" height="24px" viewBox="0 0 24.667 24" enable-background="new 0 0 24.667 24" xml:space="preserve">
<g>
	<path fill="#58595B" d="M12.294,0.631c-6.341,0-11.482,5.141-11.482,11.483c0,6.341,5.141,11.482,11.482,11.482
		s11.482-5.141,11.482-11.482C23.776,5.772,18.636,0.631,12.294,0.631L12.294,0.631z M21.58,11.288
		c-1.219-0.048-3.524-0.05-6.145,0.409c-0.239-0.568-0.481-1.112-0.722-1.632c0.15-0.07,0.302-0.143,0.45-0.217
		c1.8-0.908,3.293-2.081,4.46-3.498C20.746,7.772,21.422,9.476,21.58,11.288L21.58,11.288z M18.09,4.811
		c-1.088,1.385-2.536,2.497-4.338,3.328c-0.203-0.381-0.4-0.745-0.595-1.085c-0.992-1.742-1.937-3.13-2.645-4.093
		c0.582-0.111,1.177-0.169,1.783-0.169C14.426,2.792,16.447,3.501,18.09,4.811L18.09,4.811z M5.702,5.521
		c0.777-0.778,1.668-1.401,2.637-1.854c0.678,0.882,1.796,2.437,2.967,4.504c0.134,0.236,0.271,0.484,0.411,0.742
		c-0.901,0.278-1.868,0.502-2.901,0.67c-2.317,0.378-4.407,0.366-5.58,0.313C3.636,8.253,4.476,6.747,5.702,5.521L5.702,5.521z
		 M2.971,12.114c0-0.022,0-0.044,0.002-0.066c0.398,0.021,0.905,0.039,1.495,0.039c1.25,0,2.873-0.078,4.64-0.361
		c1.274-0.205,2.475-0.494,3.592-0.864c0.197,0.419,0.395,0.855,0.59,1.308c-1.432,0.385-2.747,0.889-3.926,1.506
		c-1.913,1.001-3.47,2.304-4.644,3.876C3.584,15.977,2.971,14.092,2.971,12.114L2.971,12.114z M6.211,19.179
		c1.641-2.402,4.284-4.076,7.879-4.989c0.72,1.982,1.336,4.198,1.691,6.575c-1.094,0.44-2.273,0.672-3.488,0.672
		C10.037,21.437,7.903,20.639,6.211,19.179L6.211,19.179z M18.886,18.706c-0.345,0.344-0.712,0.658-1.097,0.939
		c-0.369-2.11-0.922-4.089-1.562-5.892c2.264-0.354,4.255-0.346,5.294-0.305C21.239,15.432,20.328,17.264,18.886,18.706
		L18.886,18.706z M18.886,18.706"/>
</g>
</svg>
