<?xml version="1.0" encoding="utf-8"?>
<!-- Generator: Adobe Illustrator 16.0.0, SVG Export Plug-In . SVG Version: 6.00 Build 0)  -->
<!DOCTYPE svg PUBLIC "-//W3C//DTD SVG 1.0//EN" "http://www.w3.org/TR/2001/REC-SVG-20010904/DTD/svg10.dtd">
<svg version="1.0" id="Layer_1" xmlns="http://www.w3.org/2000/svg" xmlns:xlink="http://www.w3.org/1999/xlink" x="0px" y="0px"
	 width="99.667px" height="99.666px" viewBox="0 0 99.667 99.666" enable-background="new 0 0 99.667 99.666" xml:space="preserve">
<g>
	<circle fill="#666666" cx="49.833" cy="49.833" r="48.333"/>
	<g>
		<path fill="#F1F1F2" d="M17.382,46.465v4.131h6.869v2.739h-6.869v4.13h8.262v2.761H14.62V43.704h11.023v2.762H17.382z"/>
		<path fill="#F1F1F2" d="M46.807,43.704l-6.584,17.208l-6.611-17.208H46.807z M40.223,53.477l2.525-7.034h-5.074L40.223,53.477z"/>
		<path fill="#F1F1F2" d="M52.843,49.724c0-3.376,2.763-6.137,6.138-6.137c3.376,0,6.139,2.761,6.139,6.137
			c0,3.375-2.763,6.137-6.139,6.137C55.605,55.86,52.843,53.099,52.843,49.724z M64.363,60.346H53.458v-2.738h10.905V60.346z
			 M55.581,49.724c0,1.888,1.512,3.398,3.399,3.398c1.889,0,3.398-1.51,3.398-3.398c0-1.889-1.51-3.399-3.398-3.399
			C57.093,46.324,55.581,47.835,55.581,49.724z"/>
		<path fill="#F1F1F2" d="M86.395,60.227h-2.785l-8.214-11.754v11.754h-2.762V43.704h2.786l8.238,11.755V43.704h2.736V60.227z"/>
		<path fill="#F1F1F2" d="M35.321,24.105h-3.47v13.998h-2.738V24.105h-3.47V21.58h9.678V24.105z"/>
		<path fill="#F1F1F2" d="M51.094,28.165h-5.806l-0.708,1.913h-2.976l6.585-16.995l6.61,16.995h-2.974L51.094,28.165z
			 M46.184,25.782h4.014l-2.008-5.736L46.184,25.782z"/>
		<path fill="#F1F1F2" d="M74.16,21.58l-6.209,8.71v7.813h-2.762V30.29l-6.209-8.71h3.375l4.227,5.901l4.201-5.901H74.16z"/>
		<path fill="#F1F1F2" d="M62.956,76.969h3.47V62.971h2.737v13.998h3.471v2.525h-9.678V76.969z"/>
		<path fill="#F1F1F2" d="M46.834,72.908h5.807l0.709-1.912h2.975l-6.586,16.995l-6.609-16.995h2.973L46.834,72.908z M51.744,75.293
			h-4.013l2.007,5.735L51.744,75.293z"/>
		<path fill="#F1F1F2" d="M24.117,79.494l6.208-8.711v-7.812h2.763v7.812l6.207,8.711H35.92l-4.225-5.901l-4.201,5.901H24.117z"/>
	</g>
</g>
</svg>
