<?xml version="1.0" encoding="utf-8"?>
<!-- Generator: Adobe Illustrator 16.0.0, SVG Export Plug-In . SVG Version: 6.00 Build 0)  -->
<!DOCTYPE svg PUBLIC "-//W3C//DTD SVG 1.1//EN" "http://www.w3.org/Graphics/SVG/1.1/DTD/svg11.dtd">
<svg version="1.1" id="Layer_1" xmlns="http://www.w3.org/2000/svg" xmlns:xlink="http://www.w3.org/1999/xlink" x="0px" y="0px"
	 width="71.774px" height="74.908px" viewBox="0 0 71.774 74.908" enable-background="new 0 0 71.774 74.908" xml:space="preserve">
<g>
	<path fill="#F2F2F2" d="M2.762,33.383v4.131h6.869v2.738H2.762v4.131h8.262v2.761H0V30.621h11.023v2.762H2.762z"/>
	<path fill="#F2F2F2" d="M32.187,30.621l-6.584,17.208l-6.611-17.208H32.187z M25.603,40.394l2.525-7.034h-5.074L25.603,40.394z"/>
	<path fill="#F2F2F2" d="M38.223,36.641c0-3.376,2.763-6.137,6.137-6.137c3.377,0,6.139,2.761,6.139,6.137
		c0,3.375-2.762,6.137-6.139,6.137C40.985,42.777,38.223,40.016,38.223,36.641z M49.742,47.263H38.838v-2.738h10.904V47.263z
		 M40.961,36.641c0,1.888,1.512,3.398,3.398,3.398c1.889,0,3.398-1.511,3.398-3.398c0-1.889-1.51-3.399-3.398-3.399
		C42.473,33.241,40.961,34.752,40.961,36.641z"/>
	<path fill="#F2F2F2" d="M71.773,47.144h-2.785L60.775,35.39v11.754h-2.762V30.621h2.785l8.238,11.755V30.621h2.736V47.144z"/>
	<path fill="#F2F2F2" d="M20.701,11.022h-3.47v13.998h-2.738V11.022h-3.47V8.497h9.678V11.022z"/>
	<path fill="#F2F2F2" d="M36.474,15.082h-5.806l-0.708,1.912h-2.976L33.569,0l6.61,16.994h-2.974L36.474,15.082z M31.563,12.699
		h4.014l-2.008-5.736L31.563,12.699z"/>
	<path fill="#F2F2F2" d="M59.539,8.497l-6.209,8.71v7.813h-2.762v-7.813l-6.209-8.71h3.375l4.227,5.901l4.201-5.901H59.539z"/>
	<path fill="#F2F2F2" d="M48.336,63.886h3.469V49.888h2.738v13.998h3.471v2.525h-9.678V63.886z"/>
	<path fill="#F2F2F2" d="M32.214,59.825h5.807l0.709-1.912h2.975l-6.586,16.995l-6.609-16.995h2.973L32.214,59.825z M37.124,62.21
		h-4.013l2.007,5.735L37.124,62.21z"/>
	<path fill="#F2F2F2" d="M9.497,66.411l6.208-8.711v-7.812h2.763V57.7l6.207,8.711H21.3l-4.225-5.901l-4.201,5.901H9.497z"/>
</g>
</svg>
