<?xml version="1.0" encoding="utf-8"?>
<!-- Generator: Adobe Illustrator 16.0.0, SVG Export Plug-In . SVG Version: 6.00 Build 0)  -->
<!DOCTYPE svg PUBLIC "-//W3C//DTD SVG 1.1//EN" "http://www.w3.org/Graphics/SVG/1.1/DTD/svg11.dtd">
<svg version="1.1" id="Layer_1" xmlns="http://www.w3.org/2000/svg" xmlns:xlink="http://www.w3.org/1999/xlink" x="0px" y="0px"
	 width="24.505px" height="24px" viewBox="0 0 24.505 24" enable-background="new 0 0 24.505 24" xml:space="preserve">
<g>
	<path fill="#58595B" d="M22.302,6.502c-1.038-1.778-2.446-3.186-4.224-4.223s-3.72-1.557-5.826-1.557
		c-2.104,0-4.046,0.52-5.824,1.557S3.242,4.725,2.204,6.502c-1.038,1.778-1.557,3.719-1.557,5.825c0,2.528,0.738,4.802,2.213,6.822
		c1.476,2.019,3.383,3.417,5.721,4.193c0.271,0.051,0.474,0.015,0.603-0.105c0.131-0.121,0.197-0.272,0.197-0.454
		c0-0.03-0.002-0.302-0.008-0.816c-0.004-0.513-0.006-0.962-0.006-1.345l-0.349,0.061c-0.222,0.041-0.5,0.058-0.839,0.053
		c-0.336-0.004-0.687-0.04-1.05-0.106c-0.363-0.065-0.699-0.216-1.013-0.453c-0.312-0.237-0.533-0.547-0.665-0.929L5.302,18.9
		c-0.1-0.231-0.26-0.488-0.476-0.771c-0.217-0.281-0.437-0.474-0.658-0.574L4.062,17.48c-0.07-0.051-0.136-0.112-0.195-0.183
		c-0.062-0.069-0.107-0.14-0.138-0.211c-0.029-0.07-0.004-0.128,0.076-0.174c0.08-0.046,0.228-0.068,0.438-0.068l0.302,0.046
		c0.201,0.04,0.451,0.16,0.749,0.362c0.297,0.202,0.541,0.463,0.732,0.786c0.231,0.413,0.51,0.727,0.838,0.944
		c0.328,0.217,0.658,0.325,0.991,0.325c0.332,0,0.619-0.025,0.861-0.075c0.242-0.051,0.467-0.126,0.679-0.226
		c0.092-0.676,0.338-1.195,0.742-1.557c-0.576-0.061-1.091-0.151-1.55-0.272c-0.459-0.121-0.931-0.317-1.419-0.59
		c-0.49-0.271-0.896-0.609-1.218-1.011c-0.322-0.403-0.586-0.933-0.792-1.587c-0.207-0.655-0.31-1.411-0.31-2.266
		c0-1.219,0.398-2.257,1.193-3.113C5.669,7.693,5.704,6.666,6.149,5.527c0.289-0.091,0.724-0.022,1.298,0.204
		s0.995,0.421,1.261,0.581C8.977,6.474,9.19,6.61,9.352,6.721c0.938-0.262,1.903-0.393,2.9-0.393c0.999,0,1.964,0.131,2.901,0.393
		l0.574-0.363c0.394-0.242,0.857-0.463,1.39-0.665c0.533-0.201,0.941-0.256,1.224-0.166c0.453,1.139,0.494,2.166,0.121,3.083
		c0.795,0.856,1.193,1.894,1.193,3.113c0,0.855-0.103,1.614-0.31,2.274c-0.207,0.66-0.474,1.189-0.8,1.586
		c-0.328,0.398-0.736,0.732-1.226,1.005c-0.488,0.272-0.962,0.468-1.419,0.589c-0.458,0.121-0.974,0.211-1.548,0.272
		c0.523,0.454,0.786,1.168,0.786,2.146v3.188c0,0.181,0.063,0.333,0.188,0.453c0.127,0.121,0.324,0.157,0.597,0.106
		c2.337-0.777,4.243-2.174,5.719-4.194c1.476-2.02,2.214-4.293,2.214-6.822C23.856,10.222,23.337,8.281,22.302,6.502L22.302,6.502z
		 M22.302,6.502"/>
</g>
</svg>
