<?xml version="1.0" encoding="utf-8"?>
<!-- Generator: Adobe Illustrator 16.0.0, SVG Export Plug-In . SVG Version: 6.00 Build 0)  -->
<!DOCTYPE svg PUBLIC "-//W3C//DTD SVG 1.1//EN" "http://www.w3.org/Graphics/SVG/1.1/DTD/svg11.dtd">
<svg version="1.1" id="Layer_1" xmlns="http://www.w3.org/2000/svg" xmlns:xlink="http://www.w3.org/1999/xlink" x="0px" y="0px"
	 width="23.167px" height="24px" viewBox="0 0 23.167 24" enable-background="new 0 0 23.167 24" xml:space="preserve">
<g>
	<path fill="#58595B" d="M20.368,1.274H2.798c-1.072,0-1.94,0.869-1.94,1.941v17.57c0,1.072,0.869,1.941,1.94,1.941h17.57
		c1.071,0,1.941-0.869,1.941-1.941V3.215C22.309,2.143,21.439,1.274,20.368,1.274L20.368,1.274z M7.495,19.797
		c0,0.312-0.252,0.565-0.564,0.565H4.527c-0.312,0-0.565-0.253-0.565-0.565V9.72c0-0.312,0.253-0.564,0.565-0.564h2.404
		c0.312,0,0.564,0.253,0.564,0.564V19.797z M5.729,8.206c-1.261,0-2.283-1.022-2.283-2.283c0-1.261,1.022-2.284,2.283-2.284
		c1.262,0,2.284,1.023,2.284,2.284C8.013,7.183,6.99,8.206,5.729,8.206L5.729,8.206z M20.058,19.842c0,0.287-0.233,0.52-0.519,0.52
		h-2.58c-0.287,0-0.52-0.232-0.52-0.52v-4.727c0-0.705,0.207-3.089-1.843-3.089c-1.59,0-1.912,1.632-1.977,2.365v5.451
		c0,0.287-0.233,0.52-0.52,0.52H9.606c-0.286,0-0.519-0.232-0.519-0.52V9.675c0-0.287,0.233-0.519,0.519-0.519H12.1
		c0.287,0,0.52,0.232,0.52,0.519v0.879c0.589-0.884,1.465-1.567,3.331-1.567c4.13,0,4.106,3.858,4.106,5.979V19.842z M20.058,19.842
		"/>
</g>
</svg>
