<?xml version="1.0" encoding="utf-8"?>
<!-- Generator: Adobe Illustrator 16.0.0, SVG Export Plug-In . SVG Version: 6.00 Build 0)  -->
<!DOCTYPE svg PUBLIC "-//W3C//DTD SVG 1.1//EN" "http://www.w3.org/Graphics/SVG/1.1/DTD/svg11.dtd">
<svg version="1.1" id="Layer_1" xmlns="http://www.w3.org/2000/svg" xmlns:xlink="http://www.w3.org/1999/xlink" x="0px" y="0px"
	 width="24px" height="24px" viewBox="0 0 24 24" enable-background="new 0 0 24 24" xml:space="preserve">
<g>
	<g>
		<path fill="#D1D2D4" d="M22.454,21.383l-6.806-3.272L15.597,3.278c-0.002-0.346,0.359-0.574,0.673-0.424l6.451,3.103
			c0.162,0.078,0.267,0.242,0.267,0.423v14.667C22.987,21.321,22.703,21.501,22.454,21.383L22.454,21.383z M22.454,21.383"/>
		<path fill="#A7A8AC" d="M15.648,18.11l-7.368-3.542l7.091-11.676c0.127-0.207,0.388-0.284,0.605-0.18L22.52,5.86
			c0.25,0.12,0.342,0.43,0.197,0.667L15.648,18.11z M15.648,18.11"/>
		<path fill="#808185" d="M15.648,18.11l-7.368-3.542L1.528,3.574C1.34,3.267,1.667,2.905,1.992,3.061l6.289,3.024L15.648,18.11z
			 M15.648,18.11"/>
		<path fill="#58595B" d="M7.748,21.383l-6.65-3.198c-0.129-0.062-0.211-0.192-0.211-0.335V3.103c0-0.266,0.277-0.44,0.517-0.325
			l6.877,3.307v14.963C8.281,21.321,7.994,21.501,7.748,21.383L7.748,21.383z M7.748,21.383"/>
	</g>
</g>
</svg>
