<?xml version="1.0" encoding="utf-8"?>
<!-- Generator: Adobe Illustrator 16.0.0, SVG Export Plug-In . SVG Version: 6.00 Build 0)  -->
<!DOCTYPE svg PUBLIC "-//W3C//DTD SVG 1.0//EN" "http://www.w3.org/TR/2001/REC-SVG-20010904/DTD/svg10.dtd">
<svg version="1.0" id="Layer_1" xmlns="http://www.w3.org/2000/svg" xmlns:xlink="http://www.w3.org/1999/xlink" x="0px" y="0px"
	 width="162.097px" height="221.281px" viewBox="0 0 162.097 221.281" enable-background="new 0 0 162.097 221.281"
	 xml:space="preserve">
<path fill="#F7DBD2" d="M0,81.028C0,36.452,36.48,0,81.042,0c44.577,0,81.054,36.452,81.054,81.028
	c0,44.563-36.478,81.028-81.054,81.028C36.48,162.057,0,125.592,0,81.028z M152.117,221.281H8.125v-36.155h143.992V221.281z
	 M36.158,81.028c0,24.924,19.96,44.86,44.884,44.86c24.939,0,44.874-19.936,44.874-44.86c0-24.938-19.935-44.886-44.874-44.886
	C56.118,36.143,36.158,56.09,36.158,81.028z"/>
</svg>
