<?xml version="1.0" standalone="no"?>
<!DOCTYPE svg PUBLIC "-//W3C//DTD SVG 20010904//EN"
 "http://www.w3.org/TR/2001/REC-SVG-20010904/DTD/svg10.dtd">
<svg version="1.0" xmlns="http://www.w3.org/2000/svg"
 width="700.000000pt" height="700.000000pt" viewBox="0 0 700.000000 700.000000"
 preserveAspectRatio="xMidYMid meet">
<metadata>
Created by potrace 1.11, written by Peter Selinger 2001-2013
</metadata>
<g transform="translate(0.000000,700.000000) scale(0.100000,-0.100000)"
fill="#000000" stroke="none">
<path d="M2810 6989 c-339 -72 -574 -150 -843 -277 -955 -454 -1665 -1327
-1907 -2346 -59 -250 -60 -258 -60 -817 0 -573 1 -588 74 -872 335 -1296 1387
-2294 2695 -2556 259 -52 399 -65 691 -66 268 0 365 8 595 46 911 152 1738
679 2280 1454 321 459 519 972 602 1565 25 178 25 682 0 860 -95 674 -333
1236 -748 1760 -104 132 -392 421 -524 526 -427 340 -873 561 -1400 691 l-150
37 -630 2 c-371 1 -648 -2 -675 -7z m880 -159 c446 -34 818 -135 1215 -330
213 -105 362 -196 540 -330 621 -472 1053 -1138 1223 -1890 107 -469 108 -976
6 -1440 -263 -1183 -1161 -2130 -2329 -2458 -296 -83 -539 -116 -875 -116
-397 -1 -667 41 -1035 161 -1020 332 -1834 1175 -2131 2206 -142 495 -166
1043 -68 1549 214 1101 990 2026 2044 2436 440 171 946 247 1410 212z"/>
<path d="M3122 5548 c-122 -315 -224 -581 -228 -590 -6 -16 3 -18 98 -18 l104
0 23 65 23 65 206 -2 206 -3 24 -62 24 -63 104 0 104 0 -11 28 c-97 256 -443
1139 -449 1145 -3 4 -106 -250 -228 -565z m298 -116 l66 -187 -134 -3 c-74 -1
-136 -1 -139 1 -2 2 27 90 63 196 37 105 69 189 73 186 3 -4 35 -91 71 -193z"/>
<path d="M1760 5445 l0 -84 123 -3 122 -3 3 -492 2 -493 95 0 95 0 0 495 0
495 120 0 120 0 0 85 0 85 -340 0 -340 0 0 -85z"/>
<path d="M4117 5518 c6 -7 103 -144 217 -304 l206 -292 0 -276 0 -277 98 3 97
3 5 280 5 280 208 292 c114 160 207 294 207 297 0 3 -52 6 -115 6 l-114 0
-146 -206 -147 -205 -146 205 -147 206 -118 0 c-94 0 -117 -3 -110 -12z"/>
<path d="M4026 3980 c-110 -20 -233 -107 -292 -208 -81 -138 -74 -317 17 -456
120 -180 359 -238 559 -136 66 34 146 120 181 195 89 189 36 400 -132 527 -90
67 -220 98 -333 78z m192 -214 c41 -21 98 -87 112 -131 27 -83 -3 -200 -66
-257 -35 -31 -108 -58 -159 -58 -51 0 -124 27 -159 58 -63 57 -93 174 -66 257
14 44 71 110 113 131 64 34 160 33 225 0z"/>
<path d="M990 3400 l0 -580 385 0 385 0 0 95 0 95 -287 2 -288 3 -3 142 -3
143 243 2 243 3 0 95 0 95 -243 3 -243 2 3 143 3 142 288 3 287 2 0 95 0 95
-385 0 -385 0 0 -580z"/>
<path d="M2333 3960 c16 -62 452 -1179 458 -1172 5 5 270 693 435 1130 l24 62
-461 0 c-455 0 -461 0 -456 -20z m627 -177 c0 -11 -162 -467 -169 -475 -5 -6
-43 95 -179 470 -3 9 35 12 172 12 97 0 176 -3 176 -7z"/>
<path d="M5060 3400 l0 -580 100 0 100 0 2 407 3 408 285 -408 285 -407 97 0
98 0 0 580 0 580 -95 0 -95 0 -2 -411 -3 -410 -286 408 -286 408 -101 3 -102
3 0 -581z"/>
<path d="M3720 2905 l0 -95 380 0 380 0 0 95 0 95 -380 0 -380 0 0 -95z"/>
<path d="M2097 2624 c-4 -4 -7 -129 -7 -278 l0 -271 -181 -255 c-100 -140
-197 -276 -216 -302 l-35 -48 120 0 119 0 146 206 145 205 147 -205 147 -206
120 0 119 0 -24 33 c-13 17 -109 151 -213 297 l-189 265 -5 280 -5 280 -90 3
c-50 1 -94 0 -98 -4z"/>
<path d="M4630 2135 l0 -495 -125 0 -125 0 0 -85 0 -85 340 0 340 0 0 85 0 85
-120 0 -120 0 0 495 0 495 -95 0 -95 0 0 -495z"/>
<path d="M3000 2051 c0 -10 437 -1138 450 -1161 7 -13 10 -12 16 5 4 11 108
278 230 593 l222 573 -106 -3 -105 -3 -22 -60 -23 -60 -205 -3 -205 -2 -24 62
-24 63 -102 3 c-58 1 -102 -1 -102 -7z m590 -298 c0 -13 -122 -367 -130 -376
-6 -7 -140 353 -140 376 0 4 61 7 135 7 74 0 135 -3 135 -7z"/>
</g>
</svg>
