<?xml version="1.0" encoding="utf-8"?>
<!-- Generator: Adobe Illustrator 16.0.0, SVG Export Plug-In . SVG Version: 6.00 Build 0)  -->
<!DOCTYPE svg PUBLIC "-//W3C//DTD SVG 1.1//EN" "http://www.w3.org/Graphics/SVG/1.1/DTD/svg11.dtd">
<svg version="1.1" id="Layer_1" xmlns="http://www.w3.org/2000/svg" xmlns:xlink="http://www.w3.org/1999/xlink" x="0px" y="0px"
	 width="23.313px" height="24px" viewBox="0 0 23.313 24" enable-background="new 0 0 23.313 24" xml:space="preserve">
<g>
	<g>
		<path fill="#58595B" d="M22.807,4.693c-0.512,0.227-1.043,0.405-1.588,0.535c0.601-0.571,1.053-1.285,1.308-2.082
			c0.073-0.228-0.175-0.424-0.38-0.302c-0.758,0.45-1.576,0.787-2.428,1.002c-0.049,0.013-0.101,0.019-0.152,0.019
			c-0.156,0-0.306-0.057-0.425-0.162c-0.907-0.799-2.074-1.24-3.285-1.24c-0.524,0-1.054,0.082-1.573,0.243
			c-1.61,0.5-2.852,1.828-3.242,3.466c-0.146,0.615-0.186,1.23-0.118,1.828c0.008,0.069-0.024,0.117-0.045,0.14
			c-0.035,0.039-0.085,0.062-0.137,0.062c-0.006,0-0.012,0-0.018,0c-3.524-0.328-6.703-2.025-8.95-4.781
			C1.66,3.28,1.439,3.298,1.348,3.454c-0.44,0.755-0.673,1.618-0.673,2.497c0,1.346,0.542,2.615,1.48,3.54
			C1.761,9.396,1.378,9.25,1.023,9.052C0.852,8.957,0.641,9.079,0.637,9.276c-0.024,1.999,1.146,3.778,2.901,4.58
			c-0.036,0.001-0.071,0.001-0.106,0.001c-0.278,0-0.56-0.027-0.836-0.08c-0.194-0.037-0.357,0.146-0.296,0.334
			c0.569,1.777,2.1,3.088,3.931,3.385c-1.52,1.02-3.29,1.558-5.132,1.558H0.524c-0.177,0-0.326,0.115-0.372,0.287
			c-0.044,0.169,0.037,0.347,0.188,0.435c2.076,1.208,4.444,1.846,6.849,1.846c2.105,0,4.074-0.417,5.853-1.241
			c1.63-0.755,3.071-1.835,4.282-3.209c1.128-1.28,2.011-2.757,2.622-4.392c0.583-1.558,0.891-3.22,0.891-4.806V7.899
			c0-0.255,0.115-0.494,0.316-0.658c0.763-0.62,1.427-1.349,1.974-2.167C23.272,4.858,23.044,4.588,22.807,4.693L22.807,4.693z
			 M22.807,4.693"/>
	</g>
</g>
</svg>
